<svg width="35" height="45" viewBox="0 0 35 45" fill="none" xmlns="http://www.w3.org/2000/svg">
<path d="M7.01937 42.5H27.9806V35C27.9806 32.0575 26.9694 29.5431 24.9469 27.4569C22.9248 25.3702 20.4425 24.3269 17.5 24.3269C14.5575 24.3269 12.0752 25.3702 10.0531 27.4569C8.03063 29.5431 7.01937 32.0575 7.01937 35V42.5ZM24.9469 17.5431C26.9694 15.4569 27.9806 12.9425 27.9806 10V2.5H7.01937V10C7.01937 12.9425 8.03063 15.4569 10.0531 17.5431C12.0752 19.6298 14.5575 20.6731 17.5 20.6731C20.4425 20.6731 22.9248 19.6298 24.9469 17.5431ZM0 45V42.5H4.51937V35C4.51937 31.9133 5.46563 29.1754 7.35813 26.7862C9.25063 24.3967 11.676 22.9679 14.6344 22.5C11.676 22 9.25063 20.5633 7.35813 18.19C5.46563 15.8167 4.51937 13.0867 4.51937 10V2.5H0V0H35V2.5H30.4806V10C30.4806 13.0867 29.5344 15.8167 27.6419 18.19C25.7494 20.5633 23.324 22 20.3656 22.5C23.324 22.9679 25.7494 24.3967 27.6419 26.7862C29.5344 29.1754 30.4806 31.9133 30.4806 35V42.5H35V45H0Z" fill="currentColor"/>
</svg>
